<?xml version="1.0" encoding="utf-8"?>
<!-- Generator: Adobe Illustrator 23.0.2, SVG Export Plug-In . SVG Version: 6.00 Build 0)  -->
<svg version="1.1" xmlns="http://www.w3.org/2000/svg" xmlns:xlink="http://www.w3.org/1999/xlink" x="0px" y="0px"
	 viewBox="0 0 700 211" style="enable-background:new 0 0 700 211;" xml:space="preserve">
<style type="text/css">
	.st0{fill:#00AC65;}
	.st1{fill:none;}
	.st2{fill:url(#SVGID_1_);}
	.st3{fill:#0DB14B;}
	.st4{fill:url(#SVGID_2_);}
	.st5{fill:url(#SVGID_3_);}
	.st6{fill:url(#SVGID_4_);}
	.st7{fill:url(#SVGID_5_);}
	.st8{fill:url(#SVGID_6_);}
	.st9{fill:#F9B036;}
	.st10{fill:#007BC1;}
	.st11{fill:url(#SVGID_7_);}
	.st12{fill:url(#SVGID_8_);}
	.st13{fill:url(#SVGID_9_);}
	.st14{fill:url(#SVGID_10_);}
	.st15{fill:url(#SVGID_11_);}
	.st16{fill:url(#SVGID_12_);}
	.st17{fill:url(#SVGID_13_);}
	.st18{fill:url(#SVGID_14_);}
	.st19{fill:url(#SVGID_15_);}
	.st20{fill:url(#SVGID_16_);}
	.st21{fill:url(#SVGID_17_);}
	.st22{fill:url(#SVGID_18_);}
	.st23{fill:url(#SVGID_19_);}
	.st24{fill:url(#SVGID_20_);}
	.st25{fill:url(#SVGID_21_);}
	.st26{fill:url(#SVGID_22_);}
	.st27{fill:url(#SVGID_23_);}
	.st28{fill:url(#SVGID_24_);}
	.st29{fill:url(#SVGID_25_);}
	.st30{fill:url(#SVGID_26_);}
	.st31{fill:url(#SVGID_27_);}
	.st32{fill:url(#SVGID_28_);}
	.st33{fill:url(#SVGID_29_);}
	.st34{fill:url(#SVGID_30_);}
	.st35{fill:url(#SVGID_31_);}
	.st36{fill:url(#SVGID_32_);}
	.st37{fill:url(#SVGID_33_);}
	.st38{fill:url(#SVGID_34_);}
	.st39{fill:#052460;}
</style>
<g id="Capa_1">
	<path class="st1" d="M140.2,96.06c0.67,2.4,1.18,4.83,1.56,7.29c1.01-0.89,1.98-1.78,2.92-2.67
		C143.29,99.05,141.79,97.51,140.2,96.06z"/>
	<path class="st1" d="M86.19,119.35c-3.71-7.65-5.55-16.05-5.41-24.51c-4.61,4.66-8.34,10.21-10.89,16.23
		c5.06,4.17,10.71,7.49,16.82,9.89c-0.01-0.22-0.03-0.43-0.04-0.65C86.5,119.99,86.34,119.67,86.19,119.35z"/>
	<path class="st1" d="M159.44,68.16c-11.62-3.99-24.19-3.93-35.7,0.17c2.92,2.86,5.56,6,7.87,9.36c0.17,0.04,0.35,0.08,0.52,0.12
		c8.57,2.11,16.49,6.22,23.09,11.86c4.95-5.79,8.31-10.73,10.35-14.03c-1.63-2.43-3.47-4.71-5.47-6.83
		C159.88,68.59,159.66,68.38,159.44,68.16z"/>
	<path class="st1" d="M138.06,94.2c-9.67-7.92-21.91-12.28-34.55-12.28c-0.24,0-0.47,0.01-0.7,0.01c-0.05,0.05-0.1,0.11-0.15,0.16
		l-0.05,0.06c1.14,3.2,2.59,6.3,4.33,9.23c0.03,0.05,0.06,0.09,0.09,0.14c9.04,9.45,19.36,12.52,15.27,16.37
		c2.54,1.78,5.24,3.33,8.06,4.65c3.65-2.66,6.99-5.35,10.05-8c-0.45-3.35-1.17-6.65-2.18-9.88
		C138.17,94.51,138.11,94.36,138.06,94.2z"/>
	<path class="st1" d="M139.66,94.22c0.05,0.16,0.1,0.33,0.15,0.49c1.94,1.69,3.74,3.52,5.42,5.46c3-2.84,5.66-5.61,8.02-8.23
		c-5.57-4.77-12.15-8.38-19.27-10.52C136.35,85.46,138.27,89.75,139.66,94.22z"/>
	<path class="st1" d="M121.69,108.38c-6.63,4.87-14.09-12.76-15.98-17.6c-1.45-2.56-2.69-5.24-3.69-7.99
		c-8.61,9.5-13.37,21.62-13.52,34.37c0.14,0.3,0.28,0.61,0.42,0.91c0.62,1.29,1.32,2.59,2.08,3.87l0.11,0.19
		c0.1,0.16,0.2,0.31,0.29,0.47c5.88,1.78,12,2.68,18.21,2.68c0.07,0,0.14,0,0.21,0c7.42-3.89,14.01-8.03,19.83-12.24
		C126.87,111.7,124.2,110.15,121.69,108.38C121.69,108.38,121.69,108.38,121.69,108.38z"/>
	<path class="st1" d="M69.48,112.68c1.03,6.3,3.22,12.31,6.52,17.87c1.43,2.42,3.04,4.69,4.8,6.81c2.91-0.93,5.72-1.91,8.46-2.93
		c-1.25-3.82-2.07-7.76-2.44-11.81C80.53,120.23,74.71,116.89,69.48,112.68z"/>
	<path class="st1" d="M91.04,133.75c1.29-0.5,2.56-1.01,3.81-1.52c-2.19-2.44-4.19-5.08-5.94-7.92
		C89.32,127.53,90.04,130.68,91.04,133.75z"/>
	<path class="st1" d="M97.79,131c3.2-1.38,6.28-2.81,9.22-4.29c-4.89-0.19-9.71-0.93-14.39-2.21
		C94.18,126.82,95.91,128.99,97.79,131z"/>
	<path class="st1" d="M104.12,81.13l-0.21,0.06c0,0,0,0,0,0c12.28,0.09,24.16,4.22,33.71,11.71c-1.46-4.22-3.4-8.26-5.77-12.06
		c-0.15-0.04-0.31-0.08-0.46-0.12C122.41,78.49,112.98,78.64,104.12,81.13z"/>
	<path class="st1" d="M81.04,90.45c0.13-1.29,0.3-2.59,0.53-3.89c-1.76,0.77-3.49,1.65-5.16,2.61c-2.5,1.43-4.89,3.07-7.12,4.88
		c-0.04,0.18-0.08,0.36-0.11,0.55c-0.81,4.17-1.09,8.41-0.86,12.63C71.42,100.89,75.77,95.15,81.04,90.45z"/>
	<path class="st1" d="M81.73,85.67c0.03-0.18,0.06-0.36,0.1-0.55c2.02-10.05,6.71-19.14,13.64-26.55c-0.26,0.14-0.51,0.28-0.77,0.42
		c-12.83,7.37-21.93,19.65-25.17,33.88c2.05-1.6,4.22-3.07,6.49-4.37C77.87,87.46,79.78,86.51,81.73,85.67z"/>
	<path class="st1" d="M91.98,86.23c-2.85,1.64-5.55,3.54-8.02,5.65c-0.55,7.18,0.43,14.39,2.85,21.15
		c0.98-11.23,5.44-21.82,12.87-30.44c-0.57,0.22-1.15,0.44-1.71,0.68C95.93,84.13,93.91,85.12,91.98,86.23z"/>
	<path class="st1" d="M114.97,72.38c-2.46,1.41-4.8,3.01-6.99,4.78c7.06-1.34,14.36-1.32,21.45,0.06c-2.16-2.97-4.59-5.76-7.25-8.3
		C119.72,69.88,117.3,71.04,114.97,72.38z"/>
	<path class="st1" d="M85.11,84.35c2.66-0.94,5.39-1.68,8.17-2.21c1.15-0.58,2.32-1.12,3.5-1.62c1.33-0.56,2.68-1.06,4.02-1.5
		c-1.81-6.43-2.39-13.22-1.69-19.87C92.11,66.08,87.3,74.72,85.11,84.35z"/>
	<path class="st1" d="M156.34,65.26c-14.13-12.13-34.28-16.08-52.11-9.97c6.63,2.83,12.68,6.72,18,11.61
		C133.17,62.79,145.08,62.24,156.34,65.26z"/>
	<path class="st1" d="M103.29,78.25l0.21-0.06c0.2-0.05,0.4-0.1,0.59-0.15c3.01-2.77,6.34-5.22,9.92-7.28
		c2.15-1.24,4.39-2.33,6.66-3.26c-5.4-4.84-11.53-8.65-18.27-11.36c-0.5,0.42-1,0.85-1.51,1.31c-0.31,0.28-0.61,0.57-0.92,0.86
		c-0.83,6.84-0.3,13.84,1.56,20.46C102.1,78.6,102.69,78.42,103.29,78.25z"/>
	<linearGradient id="SVGID_1_" gradientUnits="userSpaceOnUse" x1="66.2873" y1="93.861" x2="177.4134" y2="93.861">
		<stop  offset="0" style="stop-color:#052460"/>
		<stop  offset="0.0937" style="stop-color:#052D60"/>
		<stop  offset="0.246" style="stop-color:#044561"/>
		<stop  offset="0.4379" style="stop-color:#026C62"/>
		<stop  offset="0.6601" style="stop-color:#00A264"/>
		<stop  offset="0.6984" style="stop-color:#00AC65"/>
	</linearGradient>
	<path class="st2" d="M76,130.55c-3.3-5.57-5.49-11.58-6.52-17.87c5.23,4.21,11.05,7.55,17.35,9.93c0.37,4.05,1.18,8,2.44,11.81
		c0.6-0.22,1.2-0.44,1.78-0.67c-1-3.07-1.72-6.22-2.13-9.44c1.76,2.84,3.75,5.48,5.94,7.92c0.99-0.41,1.97-0.82,2.93-1.23
		c-1.88-2.01-3.61-4.18-5.17-6.5c4.68,1.28,9.5,2.02,14.39,2.21c0.95-0.48,1.89-0.95,2.81-1.44c-0.07,0-0.14,0-0.21,0
		c-6.21,0-12.33-0.9-18.21-2.68c-0.1-0.16-0.2-0.31-0.29-0.47L91,121.93c-0.76-1.28-1.45-2.58-2.08-3.87
		c-0.15-0.3-0.28-0.61-0.42-0.91c0.15-12.75,4.91-24.87,13.52-34.37c1,2.75,2.24,5.43,3.69,7.99c1.89,4.85,9.35,22.48,15.98,17.6
		c0,0,0,0,0,0c2.51,1.77,5.18,3.32,7.97,4.65c0.23-0.17,0.46-0.33,0.69-0.5c-2.82-1.32-5.52-2.87-8.06-4.65
		c4.09-3.85-6.23-6.92-15.27-16.37c-0.03-0.05-0.06-0.09-0.09-0.14c-1.74-2.93-3.19-6.03-4.33-9.23l0.05-0.06
		c0.05-0.05,0.1-0.11,0.15-0.16c0.23,0,0.47-0.01,0.7-0.01c12.64,0,24.88,4.36,34.55,12.28c0.05,0.15,0.1,0.3,0.15,0.46
		c1.01,3.23,1.73,6.53,2.18,9.88c0.46-0.4,0.91-0.8,1.36-1.19c-0.37-2.46-0.89-4.89-1.56-7.29c1.59,1.45,3.08,3,4.48,4.62
		c0.18-0.17,0.36-0.34,0.54-0.51c-1.67-1.94-3.48-3.77-5.42-5.46c-0.05-0.16-0.1-0.33-0.15-0.49c-1.4-4.47-3.31-8.76-5.69-12.8
		c7.12,2.14,13.69,5.74,19.27,10.52c0.69-0.77,1.34-1.52,1.98-2.26c-6.6-5.65-14.52-9.76-23.09-11.86
		c-0.17-0.04-0.35-0.08-0.52-0.12c-2.31-3.36-4.95-6.5-7.87-9.36c11.51-4.11,24.08-4.17,35.7-0.17c0.22,0.22,0.44,0.43,0.65,0.66
		c2.01,2.11,3.84,4.4,5.47,6.83c0.72-1.17,1.27-2.13,1.67-2.85c-1.51-2.12-3.15-4.14-4.93-6.02c-7.58-7.97-17.33-13.49-28.2-15.96
		c-10.92-2.48-22.18-1.69-32.58,2.26l-0.23,0.09l-0.19,0.16c-0.21,0.17-0.42,0.34-0.62,0.51c-0.2,0.17-0.4,0.34-0.61,0.51
		c-0.07,0.03-0.14,0.06-0.22,0.09c-2.02,0.86-4.01,1.86-5.91,2.95C79.93,65.33,70.3,78.76,67.31,94.24
		c-1.02,5.27-1.24,10.64-0.66,15.96c0.02,0.19,0.05,0.39,0.07,0.59c-0.1,0.25-0.2,0.5-0.3,0.75l-0.14,0.36l0.06,0.38
		c1.03,6.98,3.39,13.63,7.04,19.77c1.3,2.19,2.76,4.28,4.34,6.26c1.04-0.31,2.06-0.64,3.08-0.96
		C79.04,135.24,77.43,132.97,76,130.55z M69.88,111.07c2.55-6.03,6.28-11.57,10.89-16.23c-0.15,8.46,1.7,16.86,5.41,24.51
		c0.15,0.32,0.31,0.64,0.48,0.96c0.01,0.22,0.03,0.43,0.04,0.65C80.59,118.57,74.95,115.25,69.88,111.07z M86.81,113.03
		c-2.43-6.76-3.4-13.96-2.85-21.15c2.47-2.11,5.17-4.01,8.02-5.65c1.94-1.11,3.95-2.1,5.99-2.96c0.57-0.24,1.14-0.46,1.71-0.68
		C92.25,91.22,87.79,101.8,86.81,113.03z M131.86,80.83c2.37,3.8,4.31,7.85,5.77,12.06c-9.55-7.48-21.43-11.62-33.71-11.71
		c0,0,0,0,0,0l0.21-0.06c8.86-2.49,18.29-2.63,27.27-0.42C131.55,80.75,131.7,80.79,131.86,80.83z M129.43,77.22
		c-7.09-1.39-14.39-1.41-21.45-0.06c2.19-1.77,4.52-3.37,6.99-4.78c2.33-1.34,4.75-2.5,7.22-3.46
		C124.85,71.47,127.28,74.25,129.43,77.22z M156.34,65.26c-11.26-3.02-23.17-2.47-34.11,1.64c-5.32-4.88-11.37-8.78-18-11.61
		C122.06,49.18,142.21,53.13,156.34,65.26z M99.97,58.33c0.3-0.29,0.6-0.58,0.92-0.86c0.52-0.47,1.01-0.9,1.51-1.31
		c6.74,2.7,12.87,6.52,18.27,11.36c-2.27,0.93-4.5,2.02-6.66,3.26c-3.59,2.06-6.92,4.51-9.92,7.28c-0.2,0.05-0.4,0.1-0.59,0.15
		l-0.21,0.06c-0.6,0.17-1.19,0.35-1.76,0.53C99.67,72.17,99.14,65.16,99.97,58.33z M100.81,79.02c-1.34,0.44-2.69,0.95-4.02,1.5
		c-1.18,0.5-2.35,1.04-3.5,1.62c-2.78,0.52-5.51,1.26-8.17,2.21c2.2-9.62,7-18.26,14.01-25.19C98.42,65.8,98.99,72.59,100.81,79.02z
		 M94.7,59c0.25-0.15,0.51-0.28,0.77-0.42c-6.93,7.41-11.62,16.5-13.64,26.55c-0.04,0.18-0.07,0.36-0.1,0.55
		c-1.94,0.83-3.86,1.79-5.71,2.85c-2.26,1.3-4.43,2.76-6.49,4.37C72.77,78.66,81.87,66.38,94.7,59z M69.17,94.59
		c0.04-0.18,0.08-0.36,0.11-0.55c2.23-1.81,4.62-3.44,7.12-4.88c1.68-0.96,3.4-1.84,5.16-2.61c-0.23,1.3-0.4,2.6-0.53,3.89
		c-5.26,4.7-9.61,10.45-12.72,16.78C68.09,103,68.37,98.76,69.17,94.59z"/>
	<path class="st3" d="M192.79,43.57c0,0-0.18,6.82-2.36,17.38c-2.24,10.77-6.56,25.45-14.91,40.75c-0.07,0.12-0.14,0.25-0.2,0.38
		c-0.26,0.45-0.51,0.92-0.77,1.37c-3.18,5.63-6.93,11.33-11.32,16.94c-1.99,2.55-4.12,5.07-6.39,7.56
		c-3.96,4.36-8.37,8.61-13.26,12.67c-1.77,1.48-3.61,2.92-5.51,4.33c-1.93,1.44-3.93,2.86-6,4.21c-1.2,0.82-2.44,1.61-3.69,2.38
		c-0.99,0.62-1.99,1.23-3,1.82c-2.89,1.7-5.92,3.35-9.07,4.89c-1.67,0.85-3.36,1.64-5.1,2.43c-7.24,3.26-15.12,6.16-23.69,8.57
		c-5.55,1.57-11.37,2.94-17.52,4.08c-0.77-0.46-2.37-1.89-4.42-3.85c-6.12-5.88-16.22-16.56-20.04-20.56
		c-0.64-0.68-1.13-1.17-1.36-1.4c0,0,0.81,0.14,2.31,0.32c2.13,0.25,5.64,0.55,10.27,0.55c0.4,0,0.81,0,1.23-0.01
		c0.37,0,0.75,0,1.13-0.01c0.19,0,0.37-0.01,0.56-0.01c0.68-0.02,1.38-0.05,2.11-0.07c0.36-0.02,0.71-0.04,1.08-0.06
		c0.58-0.04,1.17-0.07,1.77-0.11c0.06,0,0.12-0.01,0.19-0.01c1.15-0.08,2.36-0.19,3.6-0.32c1.3-0.13,2.64-0.29,4.02-0.48
		c0.44-0.06,0.87-0.12,1.31-0.19c0.44-0.05,0.88-0.12,1.32-0.2h0.02c0.71-0.11,1.43-0.23,2.17-0.36c0.54-0.1,1.08-0.19,1.64-0.3
		c0.3-0.05,0.6-0.11,0.89-0.17c0.58-0.12,1.17-0.24,1.76-0.36c0.04-0.01,0.06-0.01,0.1-0.02c0.05,0.02,0.1,0.04,0.14,0.04
		c-0.02-0.01-0.05-0.02-0.07-0.05c1.39-0.3,2.82-0.63,4.27-0.99c5.04-1.26,10.37-2.92,15.91-5.1c1.19-0.45,2.39-0.95,3.6-1.46
		c0.01,0,0.01,0,0.01,0c6.74-2.88,13.73-6.54,20.8-11.16c0.57-0.37,1.14-0.75,1.71-1.13c7.68-5.18,15.43-11.51,23.07-19.24
		c1.13-1.15,2.27-2.33,3.4-3.55c2.36-2.54,4.69-5.2,7.01-8.01c0.37-0.45,0.74-0.9,1.1-1.36c2.56-3.14,5.07-6.46,7.55-9.98
		c0.01-0.02,0.02-0.04,0.02-0.05c1.46-2.06,2.9-4.18,4.33-6.37c2.52-3.87,5-7.95,7.44-12.26C185.71,58.44,189.34,51.3,192.79,43.57z
		"/>
	<linearGradient id="SVGID_2_" gradientUnits="userSpaceOnUse" x1="46.9027" y1="122.8774" x2="30.9497" y2="106.785">
		<stop  offset="0" style="stop-color:#052460"/>
		<stop  offset="0.0937" style="stop-color:#052D60"/>
		<stop  offset="0.246" style="stop-color:#044561"/>
		<stop  offset="0.4379" style="stop-color:#026C62"/>
		<stop  offset="0.6601" style="stop-color:#00A264"/>
		<stop  offset="0.6984" style="stop-color:#00AC65"/>
	</linearGradient>
	<path class="st4" d="M48.35,115.87c0.12,0.08,0.23,0.17,0.34,0.25l-3.71,8.78c-1.58-1.15-3.31-2.14-5.09-2.97
		c-1.35-0.65-2.73-1.2-4.08-1.69l2.49-9.37c1.62,0.55,3.28,1.2,4.88,1.96C44.97,113.7,46.74,114.7,48.35,115.87z"/>
	<linearGradient id="SVGID_3_" gradientUnits="userSpaceOnUse" x1="65.9191" y1="67.7826" x2="49.2908" y2="51.009">
		<stop  offset="0" style="stop-color:#052460"/>
		<stop  offset="0.0937" style="stop-color:#052D60"/>
		<stop  offset="0.246" style="stop-color:#044561"/>
		<stop  offset="0.4379" style="stop-color:#026C62"/>
		<stop  offset="0.6601" style="stop-color:#00A264"/>
		<stop  offset="0.6984" style="stop-color:#00AC65"/>
	</linearGradient>
	<path class="st5" d="M60.94,71.8c-0.46,0.92-1,1.77-1.63,2.53c0.18-3.13-0.4-6.35-1.36-9.42c-0.18-0.57-0.37-1.14-0.58-1.7
		c-1.18-3.22-2.7-6.21-4.14-8.67l0.6-2.26l2.07-7.83c0.69,1.14,1.43,2.41,2.14,3.8c0.93,1.81,1.84,3.8,2.59,5.87
		c0.22,0.57,0.4,1.13,0.58,1.7C62.88,61.1,63.4,66.82,60.94,71.8z"/>
	<linearGradient id="SVGID_4_" gradientUnits="userSpaceOnUse" x1="60.8594" y1="131.422" x2="20.8472" y2="91.0601">
		<stop  offset="0" style="stop-color:#052460"/>
		<stop  offset="0.0937" style="stop-color:#052D60"/>
		<stop  offset="0.246" style="stop-color:#044561"/>
		<stop  offset="0.4379" style="stop-color:#026C62"/>
		<stop  offset="0.6601" style="stop-color:#00A264"/>
		<stop  offset="0.6984" style="stop-color:#00AC65"/>
	</linearGradient>
	<path class="st6" d="M52.63,139.89c0.13-1.16,0.13-2.31,0-3.46c0,0,0-0.02-0.01-0.02c-0.13-0.93-0.34-1.88-0.67-2.81
		c-0.19-0.52-0.39-1.01-0.64-1.5c-1.39-2.89-3.62-5.25-6.24-7.14c-0.03-0.02-0.05-0.04-0.08-0.05c-1.58-1.15-3.31-2.14-5.09-2.97
		c-1.35-0.65-2.73-1.2-4.08-1.69c-2.09-0.75-4.13-1.33-5.98-1.77l1.67-9.45l7.63-1.29l14.09-2.38l6.45,12.32l4.22,8.06L52.63,139.89
		z"/>
	<linearGradient id="SVGID_5_" gradientUnits="userSpaceOnUse" x1="59.9084" y1="132.578" x2="48.1473" y2="120.7141">
		<stop  offset="0" style="stop-color:#052460"/>
		<stop  offset="0.0937" style="stop-color:#052D60"/>
		<stop  offset="0.246" style="stop-color:#044561"/>
		<stop  offset="0.4379" style="stop-color:#026C62"/>
		<stop  offset="0.6601" style="stop-color:#00A264"/>
		<stop  offset="0.6984" style="stop-color:#00AC65"/>
	</linearGradient>
	<path class="st7" d="M59.67,117.68l4.22,8.06l-11.26,14.15c0.13-1.16,0.13-2.31,0-3.46c0,0,0-0.02-0.01-0.02
		c-0.13-0.93-0.34-1.88-0.67-2.81c-0.19-0.52-0.39-1.01-0.64-1.5L59.67,117.68z"/>
	<linearGradient id="SVGID_6_" gradientUnits="userSpaceOnUse" x1="115.6676" y1="30.1279" x2="110.0823" y2="24.4938">
		<stop  offset="0" style="stop-color:#052460"/>
		<stop  offset="0.0937" style="stop-color:#052D60"/>
		<stop  offset="0.246" style="stop-color:#044561"/>
		<stop  offset="0.4379" style="stop-color:#026C62"/>
		<stop  offset="0.6601" style="stop-color:#00A264"/>
		<stop  offset="0.6984" style="stop-color:#00AC65"/>
	</linearGradient>
	<path class="st8" d="M118.54,16.11c-0.3,1.22-0.68,2.57-1.13,3.98c-0.52,1.63-1.15,3.36-1.91,5.1c-0.16,0.4-0.35,0.81-0.55,1.21
		c-2.03,4.3-5.99,13.2-8.78,11.04C112.98,26.36,118.54,16.11,118.54,16.11z"/>
	<path class="st9" d="M31.53,90.99c0.01,0,0.01,0,0.02,0c-0.03,0.06-0.04,0.13-0.07,0.21C31.5,91.12,31.51,91.06,31.53,90.99z"/>
	<path class="st9" d="M138.92,27.55l8.23,4.71c1.77,6.17,4.94,11.8,10.61,13.94c4.31,1.64,8.94,1.18,13.3-0.24l10.34,5.92
		c-3.08,6.45-7.94,15.19-13.94,21.86c0,0-2.51-2.73-6.31-6.16c0,0,0-0.02-0.02-0.02c-4.7-4.89-10.28-8.97-16.47-11.82
		c-0.39-0.18-0.76-0.36-1.13-0.53c-1.31-0.57-2.65-1.09-4-1.54c-0.65-0.22-1.31-0.43-1.97-0.61c-0.18-0.05-0.36-0.12-0.55-0.16
		c-0.16-0.05-0.31-0.1-0.47-0.14c-4.89-1.44-9.84-2.14-14.74-2.19L138.92,27.55z"/>
	<path class="st10" d="M161.13,67.58c0,0,0-0.01-0.01-0.01c-4.7-4.89-10.29-8.98-16.48-11.82c0.29,0.13,0.57,0.27,0.86,0.43
		c0.29,0.14,0.57,0.3,0.87,0.45c0.43,0.23,0.86,0.48,1.29,0.73c1.3,0.75,2.57,1.58,3.83,2.45c0.05,0.04,0.1,0.06,0.14,0.1
		c1.4,0.9,2.77,1.87,4.08,2.9c1.4,1.11,2.74,2.27,4.02,3.52c0.05,0.04,0.08,0.07,0.12,0.11 M171.49,82.42
		c0,0.01-0.01,0.02-0.02,0.05 M139.51,53.67c-0.65-0.21-1.31-0.43-1.98-0.61c1.01,0.31,2.02,0.65,3.02,1.04
		c0.24,0.08,0.45,0.19,0.69,0.26c0.74,0.24,1.5,0.54,2.26,0.86C142.2,54.65,140.87,54.12,139.51,53.67z M139.51,53.67
		c-0.65-0.21-1.31-0.43-1.98-0.61c1.01,0.31,2.02,0.65,3.02,1.04c0.24,0.08,0.45,0.19,0.69,0.26c0.74,0.24,1.5,0.54,2.26,0.86
		C142.2,54.65,140.87,54.12,139.51,53.67z"/>
	<linearGradient id="SVGID_7_" gradientUnits="userSpaceOnUse" x1="133.6097" y1="106.4686" x2="25.499" y2="-2.5868">
		<stop  offset="0" style="stop-color:#052460"/>
		<stop  offset="0.0937" style="stop-color:#052D60"/>
		<stop  offset="0.246" style="stop-color:#044561"/>
		<stop  offset="0.4379" style="stop-color:#026C62"/>
		<stop  offset="0.6601" style="stop-color:#00A264"/>
		<stop  offset="0.6984" style="stop-color:#00AC65"/>
	</linearGradient>
	<path class="st11" d="M167.44,73.74c0,0-2.51-2.73-6.31-6.16c0,0,0-0.02-0.02-0.02c-4.7-4.89-10.28-8.97-16.47-11.82
		c-0.39-0.18-0.76-0.36-1.13-0.53c-1.31-0.57-2.65-1.09-4-1.54c-0.65-0.22-1.31-0.43-1.97-0.61c-0.18-0.05-0.36-0.12-0.55-0.16
		c-0.16-0.05-0.31-0.1-0.47-0.14c-11.56-3.38-23.49-2.76-34.17,1.17c-0.15,0.04-0.32,0.11-0.48,0.16
		c-6.1,2.31-11.78,5.67-16.73,10.01c-0.01,0-0.04,0.02-0.04,0.04c-2.96,2.58-5.66,5.52-8.05,8.77c-0.01,0-0.01,0-0.01,0.01
		c-2.74,3.73-5.05,7.89-6.82,12.4c-0.65,1.62-1.2,3.27-1.69,4.93c0,0.01,0,0.03-0.01,0.04c-0.57,1.98-1.02,4-1.35,6.01
		c-0.01,0.01-0.01,0.01-0.01,0.03c-1.99,11.8,0.02,23.68,5.28,33.95c1.44,2.84,3.14,5.56,5.07,8.12c-0.48,0.08-0.98,0.16-1.46,0.23
		c-0.17,0.04-0.32,0.06-0.48,0.09c-0.2,0.04-0.38,0.05-0.55,0.08c-1.61,0.26-3.16,0.47-4.65,0.65c-1.94,0.22-3.78,0.38-5.5,0.49
		c-0.01,0-0.03,0-0.03,0c-2.49,0.17-4.78,0.23-6.81,0.23c-2.09,0-3.92-0.07-5.5-0.17c0.03-0.04,0.05-0.08,0.07-0.13
		c0.32-0.54,0.63-1.09,0.91-1.64c0.1-0.2,0.2-0.39,0.29-0.58c0.1-0.19,0.19-0.38,0.27-0.57c0.72-1.57,1.27-3.17,1.59-4.77
		c0.33-1.66,0.43-3.32,0.22-4.97c0,0,0-0.01-0.01-0.01c-0.12-0.94-0.33-1.88-0.66-2.81c-0.15-0.43-0.33-0.85-0.52-1.27
		c-0.09-0.21-0.19-0.41-0.3-0.61c-0.21-0.39-0.43-0.79-0.67-1.17c-0.23-0.38-0.48-0.74-0.75-1.1c-0.39-0.54-0.83-1.05-1.28-1.54
		c-1-1.09-2.14-2.07-3.36-2.95c-1.61-1.17-3.37-2.17-5.17-3.02c-0.4-0.19-0.81-0.38-1.21-0.55c-0.28-0.13-0.57-0.25-0.85-0.36
		c-0.24-0.11-0.49-0.21-0.74-0.3c-0.18-0.08-0.36-0.14-0.54-0.21c-0.32-0.13-0.65-0.25-0.98-0.36c-0.19-0.07-0.38-0.13-0.57-0.2
		c-0.39-0.13-0.78-0.27-1.17-0.39c-1.01-0.32-2.01-0.6-2.96-0.84c-0.23-0.05-0.47-0.12-0.7-0.17c-0.4-0.1-0.81-0.2-1.19-0.28
		c-0.26-0.06-0.52-0.12-0.77-0.17c-0.03-0.94-0.04-1.88-0.04-2.82c0-0.58,0.01-1.17,0.02-1.75c0.01-0.48,0.03-0.95,0.04-1.43
		c0.01-0.36,0.02-0.73,0.04-1.09c0.01-0.22,0.02-0.44,0.04-0.66c0.01-0.36,0.04-0.73,0.06-1.09c0.06-1.03,0.15-2.05,0.26-3.09
		c0.03-0.34,0.06-0.67,0.11-1c0.04-0.34,0.08-0.68,0.12-1.02c0.03-0.19,0.05-0.39,0.08-0.57c0.06-0.48,0.13-0.95,0.2-1.43
		c0.1-0.7,0.21-1.4,0.33-2.1c0.52-3.02,1.19-6.04,2.03-9.04c0.01-0.03,0.02-0.04,0.02-0.05c1.87,0.04,3.86,0,5.89-0.15
		c1.02-0.07,2.05-0.18,3.1-0.31v-0.01c7.13-0.94,14.15-3.53,17.15-9.62c2.46-4.98,1.94-10.7,0.28-15.98
		c-0.18-0.57-0.37-1.14-0.58-1.7c-1.33-3.66-3.13-7.03-4.74-9.66c6.22-6.62,13.37-12.2,21.16-16.61
		c6.34,6.71,16.05,14.44,25.17,11.51c8.3-2.66,12.84-11.89,15.18-19.26c0.45-1.42,0.83-2.76,1.13-3.98
		c4.04-0.14,8.11-0.02,12.18,0.4c4.82,0.49,9.64,1.38,14.42,2.69h0.02c0.48,9.38,2.89,23.31,12.61,27
		c6.96,2.66,14.78-0.17,20.91-3.71c1.44-0.83,5.43-0.37,6.34,0.55C185.26,43.3,178.16,61.84,167.44,73.74z"/>
	<path class="st10" d="M143.51,55.22c-0.76-0.32-1.52-0.62-2.26-0.86c-0.24-0.07-0.45-0.18-0.69-0.26c-1-0.38-2.01-0.73-3.02-1.04
		c0.67,0.18,1.32,0.39,1.98,0.61C140.87,54.12,142.2,54.65,143.51,55.22z"/>
	<path class="st10" d="M161.12,67.56c-0.4-0.37-0.82-0.75-1.26-1.13c-0.04-0.04-0.07-0.07-0.12-0.11c-2.39-2.11-5.18-4.38-8.11-6.43
		c-0.05-0.04-0.1-0.06-0.14-0.1c-1.26-0.87-2.54-1.7-3.83-2.45c-0.43-0.25-0.86-0.5-1.29-0.73c-0.3-0.15-0.58-0.31-0.87-0.45
		c-0.29-0.15-0.57-0.3-0.86-0.43C150.84,58.59,156.42,62.67,161.12,67.56z"/>
	<line class="st1" x1="34.49" y1="82.79" x2="31.53" y2="90.99"/>
	<path class="st1" d="M34.49,82.79l0.11-0.3c0.04-0.1,0.06-0.18,0.09-0.25l0.06-0.18"/>
	<path class="st1" d="M34.75,82.06c-0.02,0.05-0.04,0.11-0.06,0.18c-0.03,0.07-0.05,0.15-0.09,0.25c-0.03,0.09-0.06,0.19-0.11,0.3"
		/>
	<path class="st9" d="M31.48,91.19c0.03-0.07,0.04-0.14,0.07-0.21c0.33-0.93,0.65-1.82,0.96-2.66c0.13-0.35,0.25-0.69,0.37-1.02
		c0.12-0.33,0.22-0.65,0.34-0.95c0.04-0.12,0.08-0.22,0.12-0.33c0.12-0.31,0.22-0.62,0.32-0.91c0-0.01,0.01-0.01,0.01-0.02
		c0.11-0.31,0.22-0.59,0.31-0.86c0.16-0.45,0.3-0.83,0.41-1.17c0.04-0.1,0.07-0.2,0.1-0.29c0.04-0.11,0.08-0.21,0.11-0.3
		c0.04-0.1,0.06-0.18,0.09-0.25c0.03-0.07,0.04-0.13,0.06-0.18c0.02-0.04,0.03-0.08,0.04-0.11"/>
	<linearGradient id="SVGID_8_" gradientUnits="userSpaceOnUse" x1="32.3699" y1="111.9133" x2="26.9424" y2="36.2231">
		<stop  offset="0.0798" style="stop-color:#052460"/>
		<stop  offset="0.0996" style="stop-color:#053160"/>
		<stop  offset="0.2324" style="stop-color:#018963"/>
		<stop  offset="0.2926" style="stop-color:#00AC65"/>
	</linearGradient>
	<path class="st12" d="M31.46,106.21c0-0.58,0.01-1.17,0.02-1.75c0.01-0.48,0.03-0.95,0.04-1.43c0.01-0.36,0.03-0.73,0.04-1.09
		c0.01-0.22,0.02-0.44,0.04-0.66c0.01-0.36,0.04-0.73,0.06-1.09c0.06-1.03,0.15-2.05,0.26-3.09c0.04-0.33,0.07-0.67,0.11-1
		c0.04-0.34,0.07-0.68,0.12-1.02c0.03-0.19,0.05-0.39,0.08-0.57c0.05-0.48,0.13-0.95,0.2-1.43c0.1-0.7,0.21-1.4,0.33-2.1
		c0.52-3.02,1.19-6.04,2.03-9.04c-0.01,0.03-0.02,0.06-0.04,0.11c-0.28,0.81-1.54,4.33-3.2,8.93c-0.03,0.06-0.04,0.13-0.07,0.21
		c-2.46,8.84-3.5,17.8-3.25,26.6l3.28-8.76C31.48,108.09,31.46,107.16,31.46,106.21z"/>
	<linearGradient id="SVGID_9_" gradientUnits="userSpaceOnUse" x1="29.6261" y1="120.1729" x2="56.0257" y2="128.8302">
		<stop  offset="0" style="stop-color:#052460"/>
		<stop  offset="0.0937" style="stop-color:#052D60"/>
		<stop  offset="0.246" style="stop-color:#044561"/>
		<stop  offset="0.4379" style="stop-color:#026C62"/>
		<stop  offset="0.6601" style="stop-color:#00A264"/>
		<stop  offset="0.6984" style="stop-color:#00AC65"/>
	</linearGradient>
	<path class="st13" d="M55.9,127.33C55.9,127.33,55.9,127.32,55.9,127.33c-0.13-0.95-0.34-1.88-0.67-2.82
		c-0.15-0.43-0.33-0.85-0.52-1.27c-0.1-0.21-0.2-0.41-0.3-0.61c-0.21-0.39-0.43-0.79-0.67-1.17c-0.23-0.38-0.49-0.74-0.75-1.1
		c-0.39-0.54-0.83-1.06-1.28-1.54c-1-1.09-2.14-2.07-3.36-2.95c-1.61-1.17-3.37-2.17-5.17-3.02c-0.4-0.19-0.81-0.38-1.21-0.55
		c-0.29-0.13-0.57-0.25-0.85-0.36c-0.24-0.11-0.49-0.21-0.74-0.3c-0.18-0.08-0.36-0.14-0.54-0.21c-0.32-0.13-0.65-0.25-0.98-0.36
		c-0.19-0.07-0.38-0.13-0.57-0.2c-0.39-0.13-0.78-0.27-1.17-0.39c-1.01-0.32-2.01-0.6-2.96-0.84c-0.23-0.05-0.47-0.12-0.7-0.17
		c-0.4-0.1-0.81-0.2-1.19-0.28c-0.26-0.06-0.52-0.12-0.77-0.17l-3.28,8.76c0,0.11,0,0.22,0,0.33c0.51,0.11,1.05,0.22,1.61,0.36
		c1.85,0.44,3.89,1.01,5.98,1.77c1.35,0.48,2.74,1.04,4.08,1.69c1.78,0.83,3.51,1.82,5.09,2.97c0.03,0.02,0.05,0.04,0.08,0.05
		c2.62,1.89,4.85,4.25,6.24,7.14c0.24,0.48,0.45,0.98,0.64,1.5c0.33,0.93,0.55,1.88,0.67,2.81c0.01,0,0.01,0.02,0.01,0.02
		c0.13,1.14,0.13,2.29,0,3.44c0.32-0.54,0.62-1.09,0.91-1.64c0.1-0.2,0.2-0.39,0.29-0.58c0.09-0.19,0.18-0.38,0.27-0.57
		c0.72-1.57,1.27-3.17,1.59-4.77C56.01,130.64,56.11,128.98,55.9,127.33z"/>
	<linearGradient id="SVGID_10_" gradientUnits="userSpaceOnUse" x1="246.3094" y1="129.823" x2="246.3094" y2="75.7088">
		<stop  offset="0" style="stop-color:#052460"/>
		<stop  offset="0.793" style="stop-color:#018F64"/>
		<stop  offset="1" style="stop-color:#00AC65"/>
	</linearGradient>
	<path class="st14" d="M274.19,91.54c0,9.31-0.22,15.91-0.66,19.78c-0.44,3.87-1.81,7.41-4.12,10.62c-2.31,3.21-5.43,5.67-9.36,7.39
		c-3.93,1.72-8.51,2.58-13.74,2.58c-4.96,0-9.42-0.81-13.37-2.43c-3.95-1.62-7.13-4.06-9.53-7.3c-2.4-3.24-3.84-6.78-4.29-10.59
		c-0.46-3.82-0.69-10.5-0.69-20.04V75.68c0-9.31,0.22-15.91,0.66-19.78s1.81-7.41,4.12-10.62c2.31-3.21,5.43-5.67,9.36-7.39
		c3.93-1.72,8.51-2.58,13.74-2.58c4.96,0,9.42,0.81,13.37,2.43c3.95,1.62,7.13,4.06,9.53,7.3s3.84,6.78,4.29,10.59
		c0.46,3.82,0.69,10.5,0.69,20.04V91.54z M250.09,61.08c0-4.31-0.24-7.07-0.72-8.27c-0.48-1.2-1.46-1.8-2.95-1.8
		c-1.26,0-2.22,0.49-2.89,1.46c-0.67,0.97-1,3.85-1,8.62v43.29c0,5.38,0.22,8.7,0.66,9.96s1.46,1.89,3.06,1.89
		c1.64,0,2.69-0.73,3.15-2.18c0.46-1.45,0.69-4.91,0.69-10.36V61.08z"/>
	<linearGradient id="SVGID_11_" gradientUnits="userSpaceOnUse" x1="319.7781" y1="129.823" x2="319.7781" y2="75.7088">
		<stop  offset="0" style="stop-color:#052460"/>
		<stop  offset="0.793" style="stop-color:#018F64"/>
		<stop  offset="1" style="stop-color:#00AC65"/>
	</linearGradient>
	<path class="st15" d="M348.26,77.63h-24.11V61.52c0-4.68-0.26-7.61-0.77-8.77S321.73,51,319.98,51c-1.98,0-3.24,0.71-3.78,2.12
		c-0.53,1.41-0.8,4.47-0.8,9.16v43.06c0,4.5,0.27,7.44,0.8,8.82c0.53,1.37,1.74,2.06,3.61,2.06c1.79,0,2.97-0.69,3.52-2.07
		c0.55-1.38,0.83-4.61,0.83-9.7V92.8h24.11v3.61c0,9.6-0.68,16.4-2.03,20.41c-1.36,4.01-4.35,7.53-8.99,10.55
		c-4.64,3.02-10.35,4.53-17.15,4.53c-7.06,0-12.88-1.28-17.46-3.84c-4.58-2.56-7.62-6.1-9.1-10.62s-2.23-11.33-2.23-20.41V69.96
		c0-6.68,0.23-11.69,0.69-15.03c0.46-3.34,1.82-6.56,4.09-9.65c2.27-3.09,5.42-5.53,9.45-7.3s8.66-2.66,13.89-2.66
		c7.1,0,12.96,1.37,17.58,4.12c4.62,2.74,7.65,6.17,9.1,10.26c1.45,4.1,2.18,10.47,2.18,19.13V77.63z"/>
	<linearGradient id="SVGID_12_" gradientUnits="userSpaceOnUse" x1="386.6032" y1="129.823" x2="386.6032" y2="75.7088">
		<stop  offset="0" style="stop-color:#052460"/>
		<stop  offset="0.793" style="stop-color:#018F64"/>
		<stop  offset="1" style="stop-color:#00AC65"/>
	</linearGradient>
	<path class="st16" d="M365.7,37.26h40.2v18.55h-16.09v17.58h15.06v17.64h-15.06v20.38h17.69v18.55h-41.8V37.26z"/>
	<linearGradient id="SVGID_13_" gradientUnits="userSpaceOnUse" x1="453.748" y1="129.823" x2="453.748" y2="75.7088">
		<stop  offset="0" style="stop-color:#052460"/>
		<stop  offset="0.793" style="stop-color:#018F64"/>
		<stop  offset="1" style="stop-color:#00AC65"/>
	</linearGradient>
	<path class="st17" d="M470.42,37.26l13.78,92.7h-24.64l-1.29-16.66h-8.62l-1.45,16.66h-24.92l12.3-92.7H470.42z M457.65,96.87
		c-1.22-10.5-2.44-23.48-3.67-38.94c-2.46,17.75-4,30.73-4.63,38.94H457.65z"/>
	<linearGradient id="SVGID_14_" gradientUnits="userSpaceOnUse" x1="527.0291" y1="129.823" x2="527.0291" y2="75.7088">
		<stop  offset="0" style="stop-color:#052460"/>
		<stop  offset="0.793" style="stop-color:#018F64"/>
		<stop  offset="1" style="stop-color:#00AC65"/>
	</linearGradient>
	<path class="st18" d="M553.94,37.26v92.7h-21.13l-12.54-42.14v42.14h-20.15v-92.7h20.15L533.79,79V37.26H553.94z"/>
	<linearGradient id="SVGID_15_" gradientUnits="userSpaceOnUse" x1="583.0912" y1="129.823" x2="583.0912" y2="75.7088">
		<stop  offset="0" style="stop-color:#052460"/>
		<stop  offset="0.793" style="stop-color:#018F64"/>
		<stop  offset="1" style="stop-color:#00AC65"/>
	</linearGradient>
	<path class="st19" d="M595.14,37.26v92.7h-24.11v-92.7H595.14z"/>
	<linearGradient id="SVGID_16_" gradientUnits="userSpaceOnUse" x1="639.9916" y1="129.823" x2="639.9916" y2="75.7088">
		<stop  offset="0" style="stop-color:#052460"/>
		<stop  offset="0.793" style="stop-color:#018F64"/>
		<stop  offset="1" style="stop-color:#00AC65"/>
	</linearGradient>
	<path class="st20" d="M668.48,77.63h-24.11V61.52c0-4.68-0.26-7.61-0.77-8.77c-0.52-1.16-1.65-1.74-3.41-1.74
		c-1.98,0-3.24,0.71-3.78,2.12c-0.53,1.41-0.8,4.47-0.8,9.16v43.06c0,4.5,0.27,7.44,0.8,8.82c0.53,1.37,1.74,2.06,3.61,2.06
		c1.79,0,2.97-0.69,3.52-2.07c0.55-1.38,0.83-4.61,0.83-9.7V92.8h24.11v3.61c0,9.6-0.68,16.4-2.03,20.41
		c-1.36,4.01-4.35,7.53-8.99,10.55c-4.64,3.02-10.35,4.53-17.15,4.53c-7.06,0-12.88-1.28-17.46-3.84c-4.58-2.56-7.62-6.1-9.1-10.62
		c-1.49-4.52-2.23-11.33-2.23-20.41V69.96c0-6.68,0.23-11.69,0.69-15.03c0.46-3.34,1.82-6.56,4.09-9.65
		c2.27-3.09,5.42-5.53,9.45-7.3s8.66-2.66,13.89-2.66c7.1,0,12.96,1.37,17.58,4.12c4.62,2.74,7.65,6.17,9.1,10.26
		c1.45,4.1,2.18,10.47,2.18,19.13V77.63z"/>
	<rect x="229.33" y="156.36" class="st0" width="35.98" height="6.52"/>
	<rect x="606.19" y="156.36" class="st0" width="35.98" height="6.52"/>
</g>
<g id="Capa_2">
	<g>
		<path class="st39" d="M323.67,154.37c-0.51,1.42,0.7,1.54,0.89,1.58c0.37,0.08,1.98-2.14,1.98-2.87c0-0.15-0.79-1.2-1.36-1.11
			C325.01,152,323.78,154.05,323.67,154.37z"/>
		<path class="st39" d="M323.39,173.4c0,0-26.84-1.69-27.43-1.64c-0.21,0-0.38-0.02-0.51-0.06c-0.12,0-0.15-0.04-0.06-0.12
			c0.04-0.39,0.11-0.76,0.22-1.11c0.11-0.36,0.22-0.71,0.35-1.04c0.29-0.8,0.55-1.59,0.79-2.37c0.23-0.78,0.45-1.59,0.66-2.43
			c0.17-0.47,0.34-0.9,0.51-1.3c0.17-0.4,0.29-0.83,0.38-1.3c0.17-0.33,0.42-0.61,0.76-0.82c0.43-0.1,30.59-19.97,30.59-19.97
			c0.04-0.18-1.73-1.83-2.02-1.58l-27.94,18.65c-0.04-0.04-0.06-0.11-0.06-0.19c0.04-0.33,5-20.67,5-20.67
			c0.17-1.14-2.49-2.39-2.71-0.83c0,0-5.1,23.2-5.44,23.45l-16.3,9.04c-0.47,0.25-1.28,1.32-0.67,2.62c1.07,2.28,3.7,2.37,3.7,2.37
			c0.42,0.08,9.03-0.14,9.03,0.03l-3.66,12.36c0,0,0.18,1.48,2.03,0.44l3.79-12.45c0.08-0.3,0.27-0.45,0.57-0.45
			c0,0,27.84,1.74,29.08,0.19C324.17,174.04,324.13,173.41,323.39,173.4z M295.26,163.66c-0.56,2.3-2.4,7.23-2.76,7.48
			c-0.37,0.25-7.64,0.81-10.03,0.37c-0.44-0.08-0.71-0.41-0.75-0.55c-0.03-0.11,0.19-0.33,0.59-0.62c2.5-1.87,12.09-6.84,12.4-7.06
			C294.98,163.08,295.37,163.19,295.26,163.66z"/>
		<path class="st39" d="M336.4,174.64c-0.18-0.15-0.57,0.29-1.23-1.83c-1.8-5.78,4.95-22.08,5.24-22.69
			c0.32-0.06,7.74-1.5,10.06-2.56c1.42-0.65-0.48-1.06-0.79-0.98c-2.57,0.63-8.56,1.44-8.56,1.44c-0.11,0.02,1.26-2.95,1.76-4.13
			c0.51-1.18,1.39-2.43,1.83-3.67c0.69-1.93-1.54-2.3-2.15-1.45c-0.05,0.07-0.18,0.32-0.18,0.32c-0.09,0.21-0.15,0.39-0.19,0.54
			c-0.04,0.15-0.09,0.26-0.12,0.35l-2.78,7.08l-0.42,1.28c0,0-0.34,0.16-0.47,0.17l-6.6,2.14c-0.25,0.32,0.08,1.35,0.41,1.58
			c0.06,0.04,5.81-1.83,5.81-1.83c0,0.13-4.32,13.98-4.32,13.98c-0.18,0.13-6.82,5.99-10.63,4.12c-3.06-1.5,0.35-5.97,0.35-5.97
			c0.21-0.33,0.31-0.61,0.28-0.83c-0.1-1.28-1.59-1.54-1.98-1.13c-0.63,0.65-3.43,5.87-0.7,8.44c0.29,0.28,0.76,0.58,1.4,0.91
			c3.57,1.91,10.65-2.79,10.83-2.93c0.03-0.03,0.06-0.04,0.1-0.07v0.1c0,0-1.01,8.85,2.41,8.79c0.42-0.01,0.7-0.07,0.85-0.22
			c0.15-0.15,0.2-0.31,0.16-0.47C336.7,174.94,336.59,174.79,336.4,174.64z"/>
		<path class="st39" d="M416.34,163.22c-2.03,1.56-3.88,5.74-8.56,5.63c-4.73-0.11-3.88-6.52-4.27-8.97
			c-0.2-1.31-1.53-3.3-5.31-0.07c-0.37,0.31-1.11,0.95-1.2,0.83c-0.04-0.04,0.36-1.53,0.12-1.96c-0.23-0.43-1.41-0.75-1.96,0.12
			l-1.74,5.66c-0.01,0.03-0.01,0.06-0.02,0.09c-0.14,0.07-4.88,2.37-6.15,2.91c-1.26,0.55-8.68,3.98-8.97,0.39
			c-0.09-1.04,0.4-2.09,0.44-2.09h0.13c0,0,0.79,0.64,2.21,0.06c1.75-0.71,4.57-4.02,4.61-6.01c0.01-0.62-1.32-1.35-2.15-1.26
			c-0.44,0.04-5.75,1.25-6.82,6.83c0,0.02-0.03,0.09-0.03,0.09c-0.31,0.23-6.3,4.8-9,2.31c-0.97-1.08-1.2-3.68-1.71-4.86
			c-0.55-1.26-1.51-1.79-1.7-1.9c-0.84-0.54-1.75-0.61-2.72-0.19c-1.24,0.5-4.99,4.93-4.99,4.93h-0.07
			c-0.04-0.04-0.06-0.09-0.06-0.12c0-0.21,8.95-25.32,8.79-29.17l-0.12-0.27c0,0-1.63-2.76-2.12,0.18c0,0-0.6,7.52-8.47,27.6
			c-0.07,0.05-0.14,0.1-0.22,0.14c-8.09,5.44-12.96,4.43-14.11,3.2c-1.02-1.09,2.16-8.09,4.73-7.08c0.54,0.21,1.51,1.56,1.8,1.47
			c0.21-0.04,0.43-0.2,0.45-0.5c0.05-0.78-0.72-2.5-1.62-2.66c-5.07-0.9-8.25,7.43-6.92,9.17c3.86,5.04,15.14-1.26,15.14-1.26
			l-0.48,2.41c-0.45,2.2,2.23,2.48,2.6,1.96c1.62-2.29,4.29-6.53,7.33-8.47c0.21-0.13,0.38-0.08,0.5,0.13l1.68,4.86
			c1.42,3.26,4.75,4.28,11.08,0.47c0.07,0.3,0.55,3.73,5.5,3.11c4.52-0.57,10.15-3.62,10.61-3.83c-0.04,0.09-0.27,0.96,0.01,1.13
			c0.41,0.25,1.77,0.39,1.9,0.28s1.28-2.26,1.58-3.06c0.73-1.96,5.32-6.99,5.5-5.12c0.35,3.62,1.11,7.14,2.98,8.66
			c2.69,2.19,7.25,2.56,12.9-5.06C417.5,163.8,417.25,162.52,416.34,163.22z M383.16,160.15c0.84,0.08,1.24,0.29,1.08,0.54
			c-1.06,1.66-3.68,4.12-5.24,3.6C378.83,164.23,380.96,159.94,383.16,160.15z"/>
		<path class="st39" d="M517.79,163.1c0.01-0.11,0.01-0.23,0.02-0.34c0.05-0.21,0.08-0.41,0.1-0.6c0.02-0.13,0.02-0.28,0.01-0.44
			c-0.02-0.32-0.11-0.58-0.28-0.79v-0.19c-0.17-0.3-0.36-0.58-0.57-0.85c-0.21-0.27-0.48-0.47-0.82-0.61l-0.45-0.18l-0.38-0.19
			l-0.44-0.06c-0.25-0.09-0.51-0.11-0.76-0.06l-0.44,0.12c-0.21,0-0.45,0.04-0.69,0.13c-0.18,0.12-0.35,0.24-0.54,0.34
			c-0.18,0.11-0.39,0.2-0.6,0.29l-0.54,0.48c-0.11,0.07-0.21,0.15-0.32,0.22c-0.31,0.22-0.58,0.42-0.76,0.59
			c-0.02,0.03-0.05,0.06-0.08,0.09c-1,0.87-1.81,1.8-2.29,2.39l-0.42,0.32c0.18-0.88,0.67-3.57,0.21-4.44c0,0,0,0,0,0
			c-0.02-0.15-0.04-0.24-0.07-0.28c-0.06-0.09-0.26-0.28-0.6-0.57c-0.09-0.09-0.22-0.13-0.39-0.13c-0.04-0.04-0.08-0.06-0.12-0.06
			s-0.11-0.02-0.19-0.06c-0.04,0-0.06,0.01-0.09,0.02c-0.09-0.01-0.15,0.01-0.15,0.11l-0.19,0.51v1.9
			c-0.04,0.47-0.07,0.92-0.11,1.36c-0.18,1.5-0.37,2.71-0.37,2.71c-0.01,0.01-0.08,0.06-0.16,0.13c-0.08,0.06-0.14,0.11-0.18,0.13
			c-0.09,0.06-0.15,0.1-0.19,0.1s-0.09,0.02-0.12,0.06c-0.04,0.04-0.19,0.17-0.45,0.38c-0.42,0.34-0.94,0.68-1.55,1.04
			c-0.61,0.36-1.26,0.69-1.96,1.01c-0.7,0.32-1.4,0.6-2.12,0.83c-0.71,0.23-1.37,0.39-1.96,0.47c-0.59,0.09-1.23,0.07-1.92-0.04
			c-0.02,0-0.03-0.01-0.04-0.01c-0.51-0.26-0.83-0.6-1.02-0.99c-0.01-0.08-0.04-0.14-0.04-0.23c-0.09-0.38-0.08-0.76,0.03-1.14
			c0.07-0.25,0.15-0.51,0.23-0.75c0.04-0.13,0.08-0.25,0.12-0.38l0.74-1.69l0.33-0.77c0.21-0.33,0.31-0.61,0.28-0.83
			c0-0.03-0.03-0.07-0.04-0.11c-0.12-0.8-0.78-1.16-1.33-1.19c-0.02-0.01-0.03-0.02-0.05-0.03c-0.08-0.04-0.18-0.04-0.31,0
			c-0.12,0.04-0.2,0.1-0.24,0.18c-0.01,0.01-0.02,0.01-0.03,0.02c-0.4,0.41-1.67,2.67-1.85,4.92c-0.19,0.18-0.38,0.37-0.57,0.55
			c-0.57,0.53-1.26,1.12-2.05,1.8c-0.3,0.21-0.68,0.48-1.18,0.82c-0.48,0.34-0.9,0.61-1.23,0.83c-0.42,0.21-0.84,0.4-1.26,0.57
			c-0.42,0.17-0.86,0.29-1.33,0.38c-0.31,0.04-0.58,0.02-0.82-0.07c-0.01,0-0.02,0-0.03-0.01c-0.01,0-0.02-0.01-0.02-0.01
			c-2.27-1.34,0.01-10.16,0.01-10.53c0-0.37-1.69-2.02-2.54-1.38l0,0c-0.08,0.05-0.15,0.11-0.21,0.19l-1.13,1.19
			c-0.19,0.27-0.46,0.67-0.79,1.19c-1.08,1.28-2.41,2.81-3.61,4.04c-0.05,0.05-0.11,0.1-0.16,0.15c-0.17,0.21-0.36,0.39-0.56,0.57
			c-0.07,0.07-0.14,0.13-0.21,0.2c-0.23,0.19-0.45,0.38-0.68,0.57l-1.01,0.69c-0.09,0.04-0.19,0.06-0.32,0.06
			c-0.08-0.01-0.14-0.05-0.2-0.07c-0.03-0.03-0.05-0.07-0.05-0.12c0-0.08-0.01-0.16-0.04-0.22c-0.02-0.06-0.01-0.13,0.04-0.22
			c0.04-0.25,0.11-0.54,0.22-0.89c0.11-0.33,0.2-0.69,0.28-1.07c0.09-0.38,0.18-0.74,0.29-1.08c0.11-0.33,0.2-0.61,0.28-0.82
			l0.05-0.41c0.18-0.35,0.31-0.59,0.31-0.63c0-0.14-1.05-0.96-1.67-1.25l-0.07-0.06c-0.09-0.08-0.2-0.09-0.35-0.03
			c-0.13,0.05-0.23,0.16-0.31,0.29c-1.27,1.42-1.99,5.3-1.24,6.81c0.44,0.88,2.62,1.82,3.58,1.63c1.94-0.38,4.27-3.77,5.66-5.53
			c0.26-0.29,0.51-0.57,0.72-0.83c0.19-0.18,0.33-0.26,0.41-0.19c0.03,0.02,0.04,0.1,0.05,0.21l-0.24,1.88
			c-0.04,0.47-0.04,0.9,0,1.33c0.04,0.37,0.1,0.75,0.17,1.12c0.05,0.6,0.15,1.15,0.34,1.56c0.12,0.44,0.33,0.83,0.63,1.17
			c0.46,0.55,0.85,0.93,1.17,1.14c0.13,0.09,0.29,0.16,0.47,0.23c0.54,0.26,1.12,0.38,1.71,0.38c0.42,0.03,0.82,0.01,1.19-0.08
			c0.07-0.02,0.15-0.05,0.22-0.07c2.62-0.6,5.26-2.71,6.38-3.69c0.19,0.45,0.45,0.87,0.84,1.24c0.29,0.28,0.76,0.58,1.4,0.91
			c0.69,0.37,1.52,0.49,2.4,0.44c0.57,0,1.13-0.07,1.69-0.25c0.14-0.04,0.25-0.08,0.39-0.12c0.24-0.07,0.48-0.14,0.73-0.22
			c0.38-0.11,0.74-0.21,1.07-0.3c0.63-0.3,1.13-0.51,1.51-0.63c0.34-0.11,0.64-0.32,0.91-0.59c0.13-0.07,0.26-0.14,0.38-0.2
			c0.04-0.01,0.07-0.02,0.11-0.03c0.21-0.04,0.32-0.08,0.32-0.12c0.29-0.21,0.54-0.38,0.76-0.51c0.18-0.11,0.37-0.23,0.54-0.35
			c-0.04,0.11-0.07,0.2-0.09,0.29c-0.04,0.17-0.13,0.36-0.25,0.57c-0.13,0.3-0.32,0.74-0.57,1.33c-0.18,0.43-0.31,0.77-0.4,1.06
			c-0.06,0.14-0.12,0.28-0.19,0.43l-0.24,0.28c-0.08,0.21-0.18,0.43-0.28,0.66c-0.11,0.24-0.2,0.5-0.28,0.79
			c-0.1,0.33-0.2,0.63-0.32,0.91c-0.02,0.05-0.04,0.11-0.07,0.16c-0.12,0.28-0.24,0.53-0.38,0.76c-0.12,0.21-0.23,0.45-0.32,0.69
			c-0.04,0.18-0.08,0.33-0.12,0.47c-0.02,0.06-0.01,0.1-0.02,0.15c-0.12,0.31-0.25,0.63-0.37,0.94c-0.07,0.08-0.13,0.17-0.18,0.27
			v0.13c-0.09,0.29-0.19,0.59-0.32,0.88c-0.04,0.1-0.07,0.22-0.11,0.33c-1.84,5-3.18,9.85-1.58,10.14c0.19,0.03,0.96,0.24,1.28-0.15
			c0.01-0.01,0.02-0.01,0.04-0.02l0.44-1.01c0.21-0.47,0.4-0.95,0.57-1.46c0.17-0.5,0.33-1.03,0.51-1.58l0.5-1.13
			c0.3-0.89,0.59-1.77,0.89-2.66c0.3-0.89,0.54-1.76,0.76-2.65c0.25-0.72,0.47-1.41,0.67-2.09c0.19-0.68,0.37-1.37,0.54-2.08
			c0.09-0.3,0.2-0.67,0.35-1.11c0.15-0.45,0.29-0.89,0.44-1.33c0.15-0.44,0.27-0.87,0.38-1.29c0.11-0.42,0.2-0.76,0.29-1.01
			c0.08-0.25,0.18-0.49,0.28-0.7c0.11-0.21,0.2-0.42,0.29-0.63c0.17-0.25,0.44-0.65,0.82-1.19c0.38-0.55,0.61-0.95,0.69-1.2
			c0.34-0.34,0.61-0.74,0.83-1.2c0.29-0.21,0.53-0.47,0.69-0.76l1.33-1.26c0.13-0.18,0.28-0.32,0.45-0.45
			c0.17-0.12,0.32-0.27,0.44-0.44c0.3-0.17,0.58-0.36,0.85-0.57c0.28-0.21,0.58-0.4,0.92-0.57c0.12-0.08,0.2-0.12,0.23-0.15
			l0.01-0.01c0.04,0,0.11-0.01,0.2-0.03l0.51,0.06c0.08,0.05,0.15,0.11,0.22,0.18c0.01,0.04,0.04,0.08,0.04,0.14l-0.07,0.12
			c0.21,0.76,0.24,1.35,0.07,1.77c-0.04,0.38-0.13,0.76-0.25,1.13c-0.11,0.32-0.23,0.61-0.36,0.9c-0.1,0.17-0.21,0.33-0.33,0.49
			c-0.1,0.12-0.2,0.25-0.3,0.37c-0.01,0.01-0.02,0.03-0.03,0.04c-1.06,1.21-3.18,2.48-4.17,3.08c-0.07-0.01-0.15-0.01-0.22,0.02
			c-0.15,0.07-0.24,0.16-0.28,0.29c-0.04,0.03-0.04,0.07-0.01,0.12c0,0.09,0.01,0.19,0.07,0.29c0.09,0.14,0.25,0.24,0.51,0.28
			c0.15,0.06,0.35,0.11,0.58,0.16c0.59,0.25,1.24,0.43,1.55,0.32c0.49-0.17,1.04-0.52,1.61-0.97c0.15-0.06,0.29-0.12,0.43-0.2
			c0.38-0.34,0.71-0.64,1.01-0.92c0.3-0.27,0.59-0.58,0.89-0.91c0.42-0.51,0.75-1,0.97-1.48c0.24-0.48,0.46-0.98,0.67-1.48
			C517.72,163.52,517.78,163.3,517.79,163.1z"/>
		<path class="st39" d="M454.89,175.07c-0.04-0.38-0.14-0.61-0.3-0.69c-0.11-0.05-0.28-0.06-0.46-0.04
			c-0.35-0.08-0.71-0.02-0.88,0.1c-0.01,0.01-0.03,0.02-0.04,0.03c-0.31,0.1-0.58,0.22-0.76,0.41c-0.09,0.08-0.19,0.18-0.32,0.28
			c-0.13,0.11-0.3,0.16-0.51,0.16c-0.21,0.04-0.32,0.11-0.35,0.22c-0.01,0.05-0.04,0.1-0.08,0.15c-0.15,0.08-0.3,0.16-0.46,0.24
			c-0.08,0.02-0.16,0.03-0.24,0.03c-0.17,0-0.29,0.06-0.38,0.19c-0.07,0.07-0.15,0.12-0.22,0.17c-0.13,0.06-0.27,0.12-0.4,0.18
			c-0.12,0.02-0.26,0.09-0.4,0.18c-0.19,0.08-0.38,0.16-0.57,0.24c-0.16,0.04-0.32,0.09-0.46,0.15c-0.23,0.11-0.49,0.2-0.79,0.29
			c-0.12,0.04-0.27,0.09-0.44,0.16c-0.12,0.05-0.22,0.1-0.29,0.16c-1.08,0.38-2.22,0.74-3.4,1.07c-0.2,0.03-0.4,0.09-0.58,0.16
			c-0.48,0.12-0.96,0.24-1.44,0.35c-0.24-0.08-0.46-0.1-0.66-0.06c-0.21,0.04-0.42,0.11-0.63,0.19c-0.39,0.17-0.78,0.23-1.2,0.19
			c-0.21,0-0.43,0.01-0.67,0.03c-0.23,0.03-0.45,0.05-0.66,0.1c-0.3,0.04-0.58,0.1-0.86,0.16c-0.27,0.06-0.58,0.1-0.91,0.1
			c-0.72,0-1.44-0.04-2.18-0.1c-0.74-0.06-1.49-0.14-2.25-0.22c-0.47-0.04-0.89-0.11-1.26-0.19c-0.38-0.08-0.8-0.23-1.26-0.44
			c-0.16-0.08-0.31-0.12-0.47-0.13c-1.64-0.9-2.79-2.35-3.13-4.51c0-0.18-0.01-0.36,0.01-0.55c0-0.08,0.02-0.17,0.06-0.25
			c0.04-0.09,0.06-0.18,0.06-0.25c0.04-0.55,0.12-1.06,0.25-1.55c0.02-0.09,0.06-0.18,0.08-0.27c1.66-3.97,7.01-8.71,11.2-11.61
			c0.22-0.13,0.46-0.28,0.67-0.41c0.63-0.38,1.3-0.76,2.02-1.14c0.21-0.17,0.41-0.32,0.6-0.47c0.19-0.14,0.46-0.19,0.79-0.16
			c0.21,0.04,0.42-0.02,0.63-0.18c0.21-0.17,0.49-0.21,0.83-0.13c0.76-0.08,1.54-0.13,2.34-0.16c0.8-0.02,1.55-0.11,2.27-0.28
			c0.71-0.04,1.4-0.12,2.08-0.25c0.68-0.12,1.35-0.27,2.03-0.44c0.33-0.09,0.67-0.16,1.01-0.22c0.33-0.07,0.68-0.16,1.01-0.29
			c0.17-0.04,0.32-0.07,0.44-0.1c0.13-0.02,0.21-0.09,0.25-0.22c0.19-0.07,0.22-0.25,0.16-0.47c0.09-0.09,0.06-0.2-0.1-0.35
			c-0.12-0.3-0.32-0.57-0.56-0.83c-0.21-0.09-0.36-0.16-0.45-0.22c-0.08-0.06-0.23-0.14-0.44-0.22c-0.21-0.13-0.36-0.19-0.45-0.19
			c-0.33,0.09-0.63,0.12-0.88,0.12c-0.14,0-0.28,0.02-0.41,0.05c-0.36,0.04-0.75,0.1-1.16,0.17c-0.28,0.03-0.56,0.05-0.83,0.07
			c-0.38,0.02-0.72,0.07-1.01,0.16h-0.38c-0.21,0.04-0.39,0.08-0.51,0.12c-0.12,0.04-0.27,0.09-0.44,0.13
			c-0.21,0.08-0.37,0.13-0.47,0.16c-0.11,0.02-0.26,0.03-0.47,0.03c-0.13,0-0.25,0.03-0.39,0.06c-0.12,0.04-0.29,0.09-0.5,0.13
			l-1.58,0.38c-0.21,0.04-0.4,0.09-0.54,0.12c-0.15,0.04-0.33,0.09-0.54,0.13c-0.17,0.08-0.4,0.12-0.69,0.12
			c-0.29,0-0.54,0.04-0.75,0.13c-0.03,0.02-0.08,0.03-0.11,0.05c-1.19,0.13-2.29,0.16-3.21,0.02c-0.01,0-0.02,0-0.03-0.01
			c-0.29-0.13-0.61-0.24-0.95-0.32c-0.21-0.09-0.4-0.18-0.57-0.29c-0.12-0.07-0.23-0.13-0.35-0.19c-0.27-0.25-0.48-0.55-0.61-0.92
			c0,0,0,0,0,0c-0.32-1.74,0.13-3.34,1.09-4.79c0.5-0.63,1.01-1.22,1.51-1.76c0.5-0.55,1.09-1.02,1.76-1.4
			c0.84-0.68,1.77-1.23,2.78-1.68c1.01-0.44,2.05-0.9,3.1-1.35c0.47-0.18,0.92-0.35,1.39-0.54c0.47-0.18,0.99-0.34,1.58-0.47
			c0.84-0.33,1.75-0.61,2.72-0.82c0.97-0.21,1.94-0.36,2.91-0.45c0.11-0.03,0.24-0.04,0.36-0.06c1.19-0.07,2.15,0,2.76,0.24
			c0.1,0.07,0.2,0.15,0.3,0.27c0.08,0.08,0.18,0.13,0.32,0.16c0.96,1.48,1.22,0.57,0.95-0.47c-0.27-1.03-1.01-1.7-2.09-2.08
			l-0.44-0.19c-0.83-0.16-1.58-0.22-2.26-0.19c-3,0.01-6.96,1.1-10.61,2.82c-0.02,0.01-0.04,0.01-0.05,0.02
			c-0.4,0.17-0.83,0.36-1.29,0.57c-0.21,0.08-0.43,0.17-0.67,0.25c-0.23,0.08-0.45,0.18-0.66,0.32c-0.39,0.21-0.74,0.38-1.08,0.5
			l-0.06-0.06c-0.01,0.02-0.02,0.04-0.04,0.06c-0.06,0.13-0.11,0.24-0.16,0.32c-0.08,0.04-0.14,0.06-0.18,0.06
			c-0.04,0-0.06,0.07-0.06,0.19c-0.09,0.04-0.13,0.12-0.13,0.25c0,0.04-0.17,0.06-0.5,0.06c-0.09-0.04-0.12-0.04-0.1,0.04
			c0.02,0.06-0.01,0.13-0.1,0.22c-0.25,0.21-0.53,0.41-0.82,0.6c-0.3,0.19-0.55,0.4-0.76,0.61c-1.01,0.88-1.79,1.81-2.34,2.77
			c-0.34,0.51-0.61,1.05-0.83,1.65c-0.05,0.13-0.08,0.26-0.11,0.39c0,0,0,0,0,0c0,0,0,0,0,0c-0.01,0.03-0.01,0.06-0.02,0.08
			c-1.59,5.25,2.79,6.85,3.61,7.42c0.04,0.04,0.06,0.08,0.06,0.12c0,0.04,0.03,0.06,0.06,0.06c-0.29,0.21-0.58,0.41-0.85,0.61
			c-0.27,0.18-0.54,0.34-0.79,0.47l-1.39,0.76c-0.34,0.33-0.67,0.6-0.98,0.79c-0.32,0.19-0.66,0.39-1.04,0.6
			c-0.08,0-0.12,0.07-0.12,0.19c-0.09,0.25-0.32,0.42-0.69,0.51c-0.68,0.29-1.11,0.69-1.33,1.19c-0.04,0.04-0.07,0.13-0.07,0.25
			c-0.02,0.02-0.04,0.04-0.06,0.07c-0.14,0.12-0.28,0.25-0.42,0.37c-0.09,0.04-0.2,0.07-0.33,0.07c-0.13,0.04-0.22,0.08-0.29,0.12
			c-0.06,0.04-0.13,0.11-0.22,0.19c-0.17,0.08-0.29,0.21-0.38,0.38c-0.12,0.17-0.25,0.32-0.38,0.47c-0.13,0.15-0.24,0.31-0.32,0.47
			l-0.63,0.51c-0.09,0.12-0.15,0.23-0.19,0.32c-0.04,0.08-0.12,0.14-0.25,0.18c0,0.21-0.08,0.34-0.25,0.38
			c-0.29,0.45-0.53,0.89-0.76,1.33c-1.27,1.9-1.98,3.92-1.59,5.9c0.07,0.34,0.16,0.65,0.25,0.97c0.04,0.2,0.07,0.39,0.13,0.59
			c0.25,0.81,0.63,1.63,1.14,2.44c0.07,0.12,0.15,0.23,0.23,0.35c0.11,0.17,0.22,0.33,0.34,0.5c0.03,0.03,0.05,0.05,0.08,0.07
			c7.49,9.55,29.19-0.34,29.77-2.51c0.05-0.13,0.07-0.27,0.06-0.43C454.93,175.3,454.92,175.18,454.89,175.07z"/>
		<path class="st39" d="M468.38,163.47c0.25-0.79-1.34-1.26-2.23-1.08c0,0,0,0,0,0c-0.05,0.01-0.11,0.01-0.16,0.03
			c-0.01,0-0.02,0.01-0.03,0.01c-0.17,0.04-0.34,0.1-0.48,0.19c-0.08,0.09-0.14,0.16-0.18,0.22c-0.04,0.06-0.11,0.11-0.19,0.16
			c-0.02,0.02-0.05,0.04-0.07,0.05c-1.48,1.09-4.33,3.31-6.66,4.76c-0.37,0.21-0.74,0.39-1.11,0.56c-0.76,0.42-1.47,0.63-2.14,0.63
			c-0.14,0.02-0.24,0-0.33-0.03l0,0c-0.14-0.24-0.19-0.5-0.2-0.77c0.03-0.24,0.09-0.46,0.18-0.64c0.15-0.3,0.39-0.72,0.73-1.26
			c0.08-0.09,0.28-0.32,0.6-0.7c0.32-0.38,0.52-0.56,0.61-0.56c0.5-0.39,0.97-0.78,1.39-1.2c0.42-0.42,0.9-0.8,1.46-1.14
			c0.33-0.33,0.71-0.61,1.13-0.82c0.42-0.21,0.86-0.45,1.33-0.7c0.3-0.08,0.55-0.18,0.76-0.32c0.11-0.03,0.19-0.04,0.28-0.06
			c0.59,0.04,1.07,0.16,1.36,0.01c0.08-0.03,0.14-0.07,0.16-0.14c0.33-0.5-0.91-1.4-1.83-1.71c-0.06-0.02-0.13-0.04-0.19-0.06
			c-0.18-0.05-0.34-0.07-0.47-0.05c-0.05,0.01-0.1,0.02-0.16,0.04c-0.02,0-0.03,0.01-0.05,0.01c-0.1,0.03-0.22,0.07-0.35,0.12
			c-0.01,0-0.01,0-0.02,0.01l-0.01,0c-1.28,0.51-3.6,1.98-5.56,3.7c-0.15,0.12-0.28,0.24-0.37,0.33c-0.01,0.01-0.02,0.03-0.03,0.04
			c-1.76,1.64-3.12,3.45-2.93,4.89c0,0.01,0,0.01,0,0.02c0,0.35,0.1,0.67,0.31,0.94c0.13,0.2,0.29,0.38,0.46,0.55
			c0.67,0.75,1.72,1.33,2.97,1.1c0.12-0.01,0.25-0.03,0.36-0.07c0.25,0,0.5-0.04,0.76-0.12c0.25-0.09,0.48-0.18,0.69-0.25
			c0.34-0.13,0.64-0.26,0.92-0.41c0.27-0.15,0.55-0.31,0.85-0.47c0.04-0.02,0.08-0.05,0.12-0.08c2.85-1.5,5.09-3.51,5.5-3.76
			c0.02,0,0.05-0.02,0.07-0.02c-0.45,1.31-1.3,3.79-2.2,6.72c-0.07,0.16-0.13,0.32-0.21,0.48v0.19c-0.03,0.11-0.07,0.22-0.1,0.33
			c-0.05,0.14-0.1,0.28-0.12,0.42c-0.08,0.27-0.16,0.55-0.24,0.83c-0.03,0.04-0.06,0.09-0.1,0.13c-0.12,0.17-0.18,0.34-0.16,0.54
			c0.03,0.18-0.05,0.37-0.22,0.54c-0.04,0.09-0.04,0.14,0,0.16c0.04,0.01,0.05,0.06,0.06,0.12c-0.08,0.3-0.17,0.6-0.25,0.91
			c-0.05,0.07-0.11,0.14-0.18,0.2c-0.12,0.21-0.19,0.4-0.19,0.57c-0.12,0.09-0.19,0.35-0.22,0.79c-0.02,0.45-0.1,0.77-0.22,0.98
			c-0.04,0.08-0.09,0.18-0.12,0.32c-0.04,0.12-0.04,0.25,0,0.38c-0.06,0.18-0.09,0.27-0.09,0.3c0.01-0.01,0.02-0.01,0.02-0.02
			c0.04-0.06,0.03,0.02-0.06,0.23c-0.08,0.25-0.11,0.44-0.06,0.56v0.32c0,0.04-0.01,0.09-0.04,0.13c-0.02,0.04-0.05,0.11-0.09,0.18
			c-0.04,0.09-0.11,0.25-0.19,0.51c-0.04,0.12-0.09,0.25-0.12,0.38c-0.04,0.13-0.03,0.27,0.06,0.45c0,0.12-0.03,0.23-0.06,0.32
			c-0.04,0.09-0.07,0.14-0.09,0.17c0-0.04,0-0.04-0.01-0.01c-0.01,0.01,0,0.02,0,0.02c-0.01,0.04-0.02,0.11-0.04,0.2
			c0,0.21-0.03,0.42-0.1,0.63c-0.06,0.21-0.07,0.42-0.03,0.63c-0.04,0.08-0.04,0.18,0.03,0.28c0.01,0.01,0,0.02,0.01,0.02
			c-0.01,0.12-0.03,0.23-0.04,0.34c-0.08,0.21-0.12,0.42-0.09,0.64c0.02,0.24-0.01,0.46-0.1,0.67c-0.09,0.21-0.11,0.44-0.06,0.69
			c0.04,0.25,0.04,0.48,0,0.69c0.09,0.21,0.17,0.53,0.25,0.95c0,0.18,0.06,0.32,0.18,0.45c0.24,0.29,0.57,0.52,0.96,0.7
			c0.42,0.23,0.85,0.36,1.13,0.28c0.04-0.02,0.15-0.07,0.32-0.16c0.12-0.12,0.19-0.29,0.19-0.5c-0.09-0.13-0.12-0.22-0.1-0.29
			c0.02-0.06-0.01-0.13-0.1-0.22c0-0.17-0.09-0.25-0.25-0.25c-0.01,0-0.01,0-0.01,0c-0.26-0.23-0.56-0.47-0.56-0.69
			c0-0.12,0.01-0.26,0.04-0.41c0.02-0.14,0.04-0.28,0.04-0.4c0.04-0.63,0.08-1.17,0.12-1.58c0.04-0.43,0.11-0.97,0.19-1.65
			c0.08-0.33,0.12-0.61,0.12-0.82c0.04-0.21,0.07-0.38,0.09-0.53c0.5-2.63,1.26-5.49,2.13-8.36c0.04-0.11,0.08-0.23,0.12-0.33
			c0.25-0.68,0.49-1.4,0.7-2.15c0.12-0.38,0.25-0.77,0.38-1.17c0.12-0.4,0.29-0.79,0.5-1.18l0.51-1.51c0-0.09,0.02-0.18,0.06-0.29
			c0.04-0.11,0.09-0.2,0.13-0.28c0.21-0.42,0.39-0.84,0.54-1.26c0.15-0.42,0.28-0.83,0.41-1.2c0.08-0.3,0.14-0.56,0.18-0.79
			c0.04-0.23,0.11-0.47,0.19-0.73c0.02-0.14-0.01-0.3-0.08-0.46C468.37,163.49,468.38,163.48,468.38,163.47z"/>
		<path class="st39" d="M496.32,156.62c0.37,0.08,1.98-2.14,1.98-2.87c0-0.15-0.79-1.2-1.36-1.11c-0.16,0.03-1.39,2.07-1.51,2.4
			C494.93,156.46,496.14,156.58,496.32,156.62z"/>
		<path class="st39" d="M595.31,146.42c-2.57,0.63-8.56,1.44-8.56,1.44c-0.11,0.02,1.26-2.95,1.76-4.13
			c0.51-1.18,1.39-2.43,1.83-3.67c0.69-1.93-1.54-2.3-2.15-1.45c-0.05,0.07-0.18,0.32-0.18,0.32c-0.09,0.21-0.15,0.39-0.19,0.54
			c-0.04,0.15-0.09,0.26-0.12,0.35l-2.78,7.08l-0.42,1.28c0,0-0.34,0.16-0.47,0.17l-6.6,2.14c-0.25,0.32,0.08,1.35,0.41,1.58
			c0.06,0.04,5.81-1.83,5.81-1.83c0,0.13-3.95,12.36-4.77,16.59c-0.06,0.3-0.12,0.68-0.17,1.1c-0.33,0.04-0.68,0.05-1.04,0.04
			c-4.72-0.11-3.88-6.51-4.27-8.97c-0.2-1.31-1.53-3.3-5.31-0.07c-0.37,0.32-1.11,0.95-1.2,0.83c-0.04-0.04,0.36-1.53,0.12-1.96
			c-0.23-0.43-1.4-0.75-1.96,0.12l-1.74,5.66c-0.01,0.03-0.01,0.06-0.02,0.09c-0.14,0.07-4.88,2.37-6.15,2.91
			c-1.26,0.55-8.67,3.98-8.97,0.39c-0.08-1.04,0.4-2.09,0.44-2.09h0.13c0,0,0.79,0.64,2.21,0.06c1.76-0.71,4.57-4.02,4.61-6.01
			c0.02-0.62-1.33-1.34-2.15-1.26c-0.43,0.04-5.75,1.26-6.82,6.83c0,0.03-0.03,0.09-0.03,0.09s-1.09,0.78-2.3,1.5
			c-0.05,0.03-0.11,0.06-0.16,0.09c0,0,0,0,0,0c-0.69,0.4-1.39,0.76-1.96,0.93c-0.69,0.21-1.35,0.13-1.71-0.09
			c-1.6-1.01-1.11-5.75-2.48-7.07c-0.53-0.51-2.1-0.98-2.81-0.8c-0.41,0.11-0.88,0.39-1.36,0.78c-2.54,2-5.6,6.77-6.45,6.44
			c-0.75-0.28-0.32-1.35-0.07-2.45c0.25-1.19,0.61-2.51,0.43-3.27c0-0.03,0-0.05-0.01-0.07c-0.17-0.56-0.67-1.27-1.82-1.38
			c-0.09-0.01-0.18-0.01-0.28-0.01c-1.73,0-3.5,3.13-3.7,2.97c-0.28-0.24,1.27-3.77,0.81-4.93c-0.18-0.47-1.71-1.8-1.81-1.32
			c-1,4.97-2.41,8.49-3.24,10.67c-0.25,0.66-0.45,1.19-0.57,1.62c-0.12,0.42-0.17,0.72-0.11,0.9c0.19,0.54,1.86,1.4,2.12,0.9
			c0.47-0.9,1.09-2.01,1.76-3.12c0.54-0.9,1.13-1.83,1.71-2.64c0.94-1.35,1.84-2.46,2.48-2.88c0.28-0.2,0.52-0.25,0.68-0.15
			c0.47,0.32-1.24,4.44-0.89,5.88c0.28,1.15,1,1.61,1.66,1.76c0.64,0.16,0.97,0.07,1.28-0.01c1.44-0.37,4.62-3.99,6.28-5.86
			c0.56-0.64,1.05-1.2,1.44-1.6c0.55-0.59,0.89-0.84,0.93-0.54c0.55,4.15,1.81,5.95,2.68,6.75c0.47,0.43,0.84,0.56,0.91,0.61
			c1.06,0.73,3.35,0.19,4.42-0.27c0,0,0,0.01,0,0.01c0.05-0.02,0.1-0.05,0.14-0.07c0.04-0.02,0.09-0.04,0.13-0.06
			c0.01,0,0.02-0.02,0.03-0.02c0.51-0.26,1.03-0.54,1.59-0.87c0.07,0.3,0.55,3.73,5.5,3.11c4.53-0.57,10.15-3.62,10.61-3.83
			c-0.04,0.09-0.27,0.97,0.01,1.13c0.41,0.25,1.77,0.39,1.9,0.28s1.28-2.26,1.58-3.06c0.74-1.97,5.32-6.99,5.5-5.12
			c0.35,3.63,1.11,7.14,2.98,8.66c1.1,0.9,2.5,1.48,4.17,1.35c0,0,0,0,0,0c-0.12,2.77,0.31,6.24,2.79,6.2
			c0.42-0.01,0.7-0.07,0.85-0.22c0.15-0.15,0.2-0.31,0.16-0.47s-0.16-0.32-0.35-0.47c-0.18-0.15-0.57,0.29-1.23-1.83
			c-0.31-0.98-0.36-2.26-0.25-3.72l0.16-1.45c0.99-7.13,5.11-17.04,5.33-17.52c0.32-0.06,7.74-1.5,10.06-2.56
			C597.52,146.75,595.62,146.35,595.31,146.42z M553.05,159.29c0.84,0.08,1.25,0.29,1.09,0.54c-1.06,1.66-3.69,4.12-5.24,3.59
			C548.73,163.37,550.87,159.07,553.05,159.29z"/>
	</g>
</g>
</svg>
